#!OML:ASF F:\VICON\USERDATA\INSTALL\rory3\rory3.ASF
:FULLY-SPECIFIED
:DEGREES
203
root 0.778013919511972 17.927556885417502 39.86462438263445 2.54834668551 3.2202070983839555 0.7959968477031487
lfemur -16.273301607017885 2.066555899105136 -21.1365777247878
ltibia 54.8050536453433
lfoot 1.6002087918933776 -11.746161144470934
ltoes -7.033571354348986
rfemur -28.384161118931914 4.466822970953517 27.031612228327532
rtibia 62.53181358322632
rfoot 3.1740840754965083 -4.699382069009426
rtoes -2.384379055123767
lowerback 14.428518721307622 -0.188937564576869 0.5974484592527866
upperback -0.8342757978570114 0.38098376135462597 0.8784825192723668
thorax -9.393610540418127 0.21383905753830101 0.7102183294370608
lowerneck -19.9553771187188 -4.913897892434809 -1.8973699133480786
upperneck 15.545401751655891 -6.443472613784869 2.9617851586146537
head 8.199460719085003 -2.9025754621944717 0.510619676032922
lclavicle -1.9521729781560437e-15 1.1013548979497733e-15
lhumerus -49.76820691831352 -8.806406892119153 97.16439457144205
lradius 112.3739712518993
lwrist 46.597897586746015
lhand -18.11857434239015 6.537841120557133
lfingers 7.125020000000001
lthumb 8.138470464754697 36.128911832474195
rclavicle -1.952176533109819e-15 1.1013521049827522e-15
rhumerus -48.77146911671946 15.097157400238391 -101.99714149517219
rradius 113.35427195736627
rwrist -16.258916711568386
rhand -24.571542826150363 -115.34984265717573
rfingers 7.125020000000001
rthumb 3.4343491345556765 15.097473495403511
204
root 0.7506343237420371 17.845723998876547 36.297097070851656 2.2679364237184667 2.52348139841658 0.41131490691476147
lfemur -17.411481009933166 1.7447001956222223 -21.6047592261325
ltibia 56.160278297771306
lfoot 0.14111596237151813 -12.552330292443374
ltoes -7.34736209237087
rfemur -24.87301887348874 5.102320321908721 28.301264159972316
rtibia 62.27294591226147
rfoot 3.191658487710732 -4.554763597005507
rtoes -2.658276051520347
lowerback 14.40771652336419 -0.1966643267545471 0.6686981455247987
upperback -0.9234707414857017 0.1336115192948426 0.8524516414139327
thorax -9.373817690040644 0.22464160554365534 0.7682947654462366
lowerneck -19.98369809757061 -4.921711014871294 -1.8852174866996685
upperneck 15.57406381769799 -6.363829124399002 2.9860152772158486
head 8.21234097394784 -2.896457229630035 0.5124800419924077
lclavicle -1.9521729781560437e-15 1.1013548979497733e-15
lhumerus -48.135305349873704 -8.449667377986966 97.25987475874035
lradius 112.70246313606859
lwrist 46.90081185620567
lhand -18.05185621965452 6.576512722033943
lfingers 7.125020000000001
lthumb 8.133369827120573 36.06503277560158
rclavicle -1.952176533109819e-15 1.1013521049827522e-15
rhumerus -48.93541601003137 15.056719935282725 -102.01732143777527
rradius 113.24069054241609
rwrist -16.059841922620826
rhand -24.430979037618197 -117.03595952071825
rfingers 7.125020000000001
rthumb 3.6208616333446426 15.058595269727103
205
root 0.7803428062140108 17.91926917866383 40.89173281060935 2.53702897483893 3.4517235209251225 0.9329966033842396
lfemur -17.440541946471672 1.80089397612093 -21.24840403717322
ltibia 57.246621435523025
lfoot -0.12816102361007342 -12.56905574129461
ltoes -7.169590803523929
rfemur -25.477538660411113 5.11520757817313 27.602788310251043
rtibia 61.216906729108715
rfoot 3.8402348539716624 -4.168281655643646
rtoes -2.772111974680042
lowerback 14.497996394129958 -0.15612220237369162 0.9164709284871562
upperback -1.0036125520389831 -0.03665570533340867 0.8778508566827411
thorax -9.412441892394181 0.18472501262199476 0.807080839363713
lowerneck -20.05668943939065 -4.974633965946066 -1.8968062968950814
upperneck 15.499633818965806 -6.414902160916315 2.934770189239554
head 8.192300762823837 -2.952163331307877 0.5000888896746597
lclavicle -1.9521729781560437e-15 1.1013548979497733e-15
lhumerus -47.46812367849718 -8.430759877248539 97.30699014447194
lradius 112.39913435371275
lwrist 47.01917015151911
lhand -18.117152282801428 6.448555419022121
lfingers 7.125020000000001
lthumb 8.08711785596364 35.94712121842818
rclavicle -1.952176533109819e-15 1.1013521049827522e-15
rhumerus -49.13984297308106 14.933141642589549 -102.04911490424085
rradius 113.12778907686425
rwrist -15.956870131873723
rhand -24.38144849026898 -117.42690503551975
rfingers 7.125020000000001
rthumb 3.679857945891659 14.690462309411405
206
root 0.7795157146940197 17.92460658059664 40.40890694918025 2.4590942529100976 3.4118473059980157 0.935729608429948
lfemur -18.134429072421188 1.6415336142683468 -21.559474338274605
ltibia 58.01570542647596
lfoot -0.7610799503237502 -12.026800616164893
ltoes -7.046372390370658
rfemur -26.523194723289777 5.000719902509518 27.273093916989705
rtibia 61.11898452600234
rfoot 3.754711491717468 -3.9159735253222627
rtoes -2.6627892403906
lowerback 14.439641817670559 -0.21223872708073716 0.8727884955516108
upperback -1.0678929240929516 -0.2240332322902846 0.8911984788758704
thorax -9.32224377778143 0.18696579161220978 0.8659597073674234
lowerneck -20.016478070500646 -4.927759084028001 -1.9021195357576781
upperneck 15.47173850599404 -6.406121406825721 2.933647474681313
head 8.196054064413918 -2.9791362366862684 0.49153426083202334
lclavicle -1.9521729781560437e-15 1.1013548979497733e-15
lhumerus -46.71757408049743 -8.394488327923117 97.26665100282582
lradius 111.99257364542419
lwrist 46.976730288269614
lhand -18.093835455074768 6.425430115694196
lfingers 7.125020000000001
lthumb 8.17809052987258 36.00258950041304
rclavicle -1.952176533109819e-15 1.1013521049827522e-15
rhumerus -49.37528119432791 14.76182060685284 -102.0612701571557
rradius 113.14781449435021
rwrist -15.48298556446554
rhand -24.184364049067298 -114.4409824156495
rfingers 7.125020000000001
rthumb 3.7239487382356407 14.543043737647674
207
root 0.7607530982514012 17.865906132728146 37.91660468617916 2.27855843950129 2.8233141044060415 0.6254156580563062
lfemur -16.384424194713798 2.2377947366912605 -20.613475191044657
ltibia 58.02097157360051
lfoot 0.5502965925158824 -11.265553707551266
ltoes -7.340787647212501
rfemur -24.87499194466377 4.967390210573273 27.600722952498643
rtibia 61.30494621933406
rfoot 3.4871586986203607 -3.8468969488942646
rtoes -2.8407996662364052
lowerback 14.46292852959388 -0.21806952131904528 0.91179676707537
upperback -1.1015332701107985 -0.2954820986238569 0.9380255142539804
thorax -9.436738651164823 0.13300983547815518 0.7361970660186707
lowerneck -20.0056969049993 -4.92752773730871 -1.9178352360971336
upperneck 15.368067602719773 -6.521715534288628 2.876345979838849
head 8.186514663151346 -3.027120890282744 0.4813520483596731
lclavicle -1.9521729781560437e-15 1.1013548979497733e-15
lhumerus -46.13983868699091 -8.517016348270705 97.34707622879276
lradius 111.33040857822364
lwrist 46.81147695963306
lhand -18.11165682760664 6.354966645065467
lfingers 7.125020000000001
lthumb 8.208387214876533 36.045478796190885
rclavicle -1.952176533109819e-15 1.1013521049827522e-15
rhumerus -49.52740896689139 14.628917755332202 -102.05876345422834
rradius 113.29955172960943
rwrist -15.535000181536056
rhand -24.336608931490023 -119.54475007383547
rfingers 7.125020000000001
rthumb 3.7842883722569365 14.218287353246568
208
root 0.7650464645237516 17.8649610102683 38.44998417074604 2.3646228542029877 2.8580014689359254 0.6998464213458484
lfemur -19.081138322450716 1.9053430388391874 -21.622745286810193
ltibia 58.01307053214992
lfoot -0.27395366853700454 -11.953471675038934
ltoes -7.2270922673851015
rfemur -26.550426700894608 4.722443826008014 27.476695273381676
rtibia 62.00920361850259
rfoot 3.2953215825412334 -4.185248075383487
rtoes -3.0099388114804126
lowerback 14.34710061990987 -0.29618614367880175 0.7588836613082255
upperback -1.07056593885807 -0.12490328917512161 1.0539606578578464
thorax -9.274673874156875 0.23165701532260274 1.0147999877550544
lowerneck -20.014643840556225 -4.949919104853374 -1.9443920019034726
upperneck 15.409962414190446 -6.523942443646765 2.9037726488485336
head 8.217969832976573 -3.0254180944229456 0.4881814058952084
lclavicle -1.9521729781560437e-15 1.1013548979497733e-15
lhumerus -45.667389112356865 -8.459057261176607 97.29031877540255
lradius 110.84527601683084
lwrist 47.023230104354965
lhand -18.06329180163075 6.282826239121157
lfingers 7.125020000000001
lthumb 8.162608451799883 36.0242644594973
rclavicle -1.952176533109819e-15 1.1013521049827522e-15
rhumerus -49.62503609935905 14.522671270957918 -102.07114103295973
rradius 113.40855258958327
rwrist -15.134342421759623
rhand -24.05380800668363 -112.96974302952731
rfingers 7.125020000000001
rthumb 3.8639166641968727 14.46511396684905
209
root 0.7846644152461701 17.926659130801482 40.74549294713141 2.5617694862446547 3.313191419212473 0.9808862102536415
lfemur -15.374618099656109 2.4500390334598148 -20.47605336736905
ltibia 58.32331917872334
lfoot -0.41273032590385794 -12.365789265092907
ltoes -7.8466408966683465
rfemur -28.30630619083281 4.175893078260806 27.335272810703437
rtibia 63.09875031371066
rfoot 3.096121445135302 -4.583550023130636
rtoes -2.5947988334753616
lowerback 14.26569005752926 -0.3355967971315293 0.6411761340860191
upperback -1.082498589541514 -0.12673002623611507 1.0429373746212593
thorax -9.50134821370157 0.09260249684335292 0.7767585833229553
lowerneck -19.95410760788242 -4.916368026202793 -1.9366073580696892
upperneck 15.34702370680667 -6.642936573056292 2.8526837086971653
head 8.197049468795772 -3.080779091277134 0.4720709750060329
lclavicle -1.9521729781560437e-15 1.1013548979497733e-15
lhumerus -46.84579889690496 -8.873028129726041 97.0135963568403
lradius 111.09448072594391
lwrist 47.03071480352652
lhand -18.01928508083364 6.252775434313727
lfingers 7.125020000000001
lthumb 8.183068643683846 36.02554709882348
rclavicle -1.952176533109819e-15 1.1013521049827522e-15
rhumerus -49.74029173406248 14.392529888039496 -102.08722593496518
rradius 113.42172759203335
rwrist -15.000031313798628
rhand -24.102975869957667 -115.31093944793804
rfingers 7.125020000000001
rthumb 3.7942794981754426 14.269675900643698
210
root 0.7483210138542373 17.81348197279671 36.2792948136548 2.1472704512180507 2.459188509347227 0.4775209480286817
lfemur -18.056559678176008 2.2158451862976163 -20.869887684260654
ltibia 58.42438204101768
lfoot -0.9673324876281522 -12.854444171088495
ltoes -8.192702183522359
rfemur -25.96484475792517 4.9154701556244 28.264774591118904
rtibia 63.19355506412668
rfoot 2.8700182308371596 -4.774327135573476
rtoes -1.9596146850096379
lowerback 14.153905432829006 -0.4017224376259703 0.49932099066582114
upperback -1.0405107189683314 -0.1454868341797113 1.0539234699697557
thorax -9.340976595490847 0.1280932433439104 0.9555490769899295
lowerneck -20.062254358157986 -4.961319808360141 -1.9619051161388639
upperneck 15.392855784333088 -6.670468823399605 2.8584926889895437
head 8.217068903911125 -3.0629908758200353 0.48934109140030146
lclavicle -1.9521729781560437e-15 1.1013548979497733e-15
lhumerus -47.81882662350606 -8.787310726245382 96.97668890593157
lradius 110.69419070060009
lwrist 46.8696319285628
lhand -17.856821708057947 6.314544519929534
lfingers 7.125020000000001
lthumb 8.254738197223583 36.06279990196425
rclavicle -1.952176533109819e-15 1.1013521049827522e-15
rhumerus -49.86700881619345 14.239387369586396 -102.06942682593103
rradius 113.3421930577693
rwrist -14.944578300231992
rhand -23.94750835560844 -110.94685757387882
rfingers 7.125020000000001
rthumb 3.6422461856494452 14.121646755253678
